<svg xmlns="http://www.w3.org/2000/svg" width="158" height="46" viewBox="0 0 158 46"><defs><style>.a{fill:#fff;}.b{fill:#002864;}</style></defs><g transform="translate(-1 -1)"><path class="a" d="M11.146,47c-.408,0-.807,0-1.212-.013a18.887,18.887,0,0,1-2.5-.2,8.523,8.523,0,0,1-2.22-.659,7.264,7.264,0,0,1-1.872-1.223A6.483,6.483,0,0,1,1.97,43.228a6.4,6.4,0,0,1-.728-1.993A13.44,13.44,0,0,1,1.02,38.98c-.008-.254-.02-1.1-.02-1.1V10.1s.012-.831.02-1.076a13.394,13.394,0,0,1,.222-2.251,6.437,6.437,0,0,1,.728-2A6.542,6.542,0,0,1,3.33,3.1a7.478,7.478,0,0,1,1.879-1.23,8.439,8.439,0,0,1,2.215-.654,18.743,18.743,0,0,1,2.513-.2L11.146,1h137.7l1.224.015a18.453,18.453,0,0,1,2.49.2,8.618,8.618,0,0,1,2.239.659,7.161,7.161,0,0,1,3.236,2.91,6.463,6.463,0,0,1,.717,1.983,14.083,14.083,0,0,1,.233,2.269c0,.341,0,.706,0,1.07.011.451.011.88.011,1.313V36.583c0,.437,0,.863-.011,1.293,0,.391,0,.749-.005,1.118a13.7,13.7,0,0,1-.229,2.229,6.425,6.425,0,0,1-.723,2.008,6.71,6.71,0,0,1-1.361,1.666,7.29,7.29,0,0,1-1.875,1.23,8.5,8.5,0,0,1-2.235.661,18.692,18.692,0,0,1-2.505.2c-.392.008-.8.013-1.2.013L147.4,47Z"/><path class="b" d="M35.716,22.626a7.424,7.424,0,0,1,.946-3.535,7.314,7.314,0,0,1,2.512-2.635,7.466,7.466,0,0,0-2.554-2.3,7.362,7.362,0,0,0-3.3-.9c-2.464-.262-4.854,1.493-6.109,1.493-1.28,0-3.214-1.467-5.3-1.424A7.73,7.73,0,0,0,18.1,14.47a7.855,7.855,0,0,0-2.755,2.9c-2.838,4.976-.721,12.289,2,16.312,1.36,1.97,2.95,4.17,5.03,4.092,2.035-.085,2.8-1.314,5.253-1.314,2.434,0,3.148,1.314,5.27,1.265,2.184-.036,3.56-1.978,4.873-3.967A16.374,16.374,0,0,0,40,29.164a7.04,7.04,0,0,1-3.114-2.616A7.171,7.171,0,0,1,35.716,22.626Z"/><path class="b" d="M31.287,11.021A7.431,7.431,0,0,0,32.759,6a6.389,6.389,0,0,0-4.236,2.387,6.834,6.834,0,0,0-1.2,2.254,7.226,7.226,0,0,0-.313,2.581,5.045,5.045,0,0,0,2.37-.566A5.513,5.513,0,0,0,31.287,11.021Z"/><path class="b" d="M59.177,33.014H53.06l-1.469,4.338H49L54.794,21.3h2.692l5.794,16.048H60.645Zm-5.483-2h4.849l-2.39-7.039h-.067Z"/><path class="b" d="M75.791,31.5c0,3.636-1.946,5.972-4.883,5.972a3.967,3.967,0,0,1-3.681-2.047h-.056v5.8h-2.4V25.652h2.325V27.6h.044a4.15,4.15,0,0,1,3.726-2.068C73.833,25.529,75.791,27.877,75.791,31.5Zm-2.468,0c0-2.369-1.224-3.926-3.092-3.926-1.835,0-3.069,1.59-3.069,3.926,0,2.357,1.234,3.936,3.069,3.936C72.1,35.438,73.322,33.893,73.322,31.5Z"/><path class="b" d="M88.67,31.5c0,3.636-1.946,5.972-4.883,5.972a3.967,3.967,0,0,1-3.681-2.047H80.05v5.8h-2.4V25.652h2.325V27.6h.044a4.15,4.15,0,0,1,3.725-2.068C86.712,25.529,88.67,27.877,88.67,31.5Zm-2.468,0c0-2.369-1.224-3.926-3.092-3.926-1.835,0-3.069,1.59-3.069,3.926,0,2.357,1.234,3.936,3.069,3.936,1.868,0,3.092-1.546,3.092-3.936Z"/><path class="b" d="M97.181,32.88c.178,1.591,1.724,2.636,3.837,2.636,2.024,0,3.48-1.045,3.48-2.48,0-1.246-.878-1.992-2.958-2.5l-2.08-.5c-2.947-.712-4.315-2.09-4.315-4.326,0-2.769,2.413-4.671,5.84-4.671,3.391,0,5.715,1.9,5.794,4.671h-2.425c-.145-1.6-1.469-2.568-3.4-2.568s-3.259.978-3.259,2.4c0,1.134.845,1.8,2.914,2.313l1.768.434c3.293.779,4.661,2.1,4.661,4.449,0,3-2.392,4.883-6.2,4.883-3.559,0-5.962-1.836-6.117-4.739Z"/><path class="b" d="M112.216,22.883v2.769h2.225v1.9h-2.225V34c0,1,.445,1.469,1.423,1.469a7.506,7.506,0,0,0,.79-.056v1.891a6.586,6.586,0,0,1-1.334.111c-2.368,0-3.292-.89-3.292-3.159V27.554h-1.7v-1.9h1.7V22.883Z"/><path class="b" d="M115.73,31.5c0-3.681,2.169-5.994,5.549-5.994s5.551,2.313,5.551,5.994-2.147,5.994-5.551,5.994S115.73,35.194,115.73,31.5Zm8.653,0c0-2.525-1.158-4.016-3.1-4.016s-3.1,1.5-3.1,4.016c0,2.535,1.156,4.014,3.1,4.014s3.1-1.479,3.1-4.014Z"/><path class="b" d="M128.809,25.652h2.29v1.991h.056a2.791,2.791,0,0,1,2.814-2.114,3.709,3.709,0,0,1,.823.09v2.246a3.358,3.358,0,0,0-1.079-.145,2.421,2.421,0,0,0-2.5,2.692v6.94h-2.4Z"/><path class="b" d="M145.867,33.915c-.323,2.124-2.392,3.581-5.038,3.581-3.4,0-5.517-2.28-5.517-5.939s2.124-6.05,5.416-6.05c3.237,0,5.272,2.224,5.272,5.771V32.1h-8.263v.145a3.047,3.047,0,0,0,3.147,3.314,2.647,2.647,0,0,0,2.7-1.646Zm-8.119-3.492h5.85a2.815,2.815,0,0,0-2.87-2.97,2.962,2.962,0,0,0-2.98,2.97Z"/><path class="b" d="M53.9,7.618a3.551,3.551,0,0,1,3.776,3.988c0,2.564-1.386,4.038-3.776,4.038H51V7.618Zm-1.652,6.891H53.76a2.523,2.523,0,0,0,2.647-2.886,2.53,2.53,0,0,0-2.647-2.87H52.246Z"/><path class="b" d="M59.084,12.613a2.869,2.869,0,1,1,5.712,0,2.87,2.87,0,1,1-5.712,0Zm4.483,0c0-1.313-.59-2.081-1.625-2.081s-1.624.768-1.624,2.081S60.9,14.7,61.942,14.7s1.625-.767,1.625-2.085Z"/><path class="b" d="M72.391,15.644h-1.24L69.9,11.183H69.8l-1.246,4.461H67.33L65.66,9.587h1.212l1.085,4.621h.089l1.245-4.621h1.147l1.245,4.621h.095l1.08-4.621h1.2Z"/><path class="b" d="M75.457,9.587h1.151v.962H76.7A1.813,1.813,0,0,1,78.5,9.47a1.97,1.97,0,0,1,2.1,2.253v3.921h-1.2V12.023c0-.973-.423-1.457-1.307-1.457A1.389,1.389,0,0,0,76.652,12.1v3.543h-1.2Z"/><path class="b" d="M82.5,7.222h1.2v8.421H82.5Z"/><path class="b" d="M85.361,12.612a2.87,2.87,0,1,1,5.713,0,2.87,2.87,0,1,1-5.713,0Zm4.483,0c0-1.313-.59-2.081-1.625-2.081S86.6,11.3,86.6,12.612,87.18,14.7,88.219,14.7s1.625-.767,1.625-2.085Z"/><path class="b" d="M92.332,13.931c0-1.09.812-1.719,2.253-1.808l1.64-.095v-.523c0-.64-.423-1-1.24-1-.667,0-1.13.245-1.262.673H92.566c.122-1.04,1.1-1.708,2.475-1.708,1.518,0,2.375.756,2.375,2.035v4.138H96.265v-.851H96.17a2.037,2.037,0,0,1-1.819.951,1.83,1.83,0,0,1-2.019-1.813Zm3.893-.518v-.506L94.746,13c-.834.056-1.212.34-1.212.873s.473.862,1.123.862a1.428,1.428,0,0,0,1.568-1.324Z"/><path class="b" d="M98.988,12.612c0-1.914.984-3.126,2.514-3.126a2,2,0,0,1,1.858,1.063h.089V7.222h1.195v8.421H103.5v-.957h-.1a2.1,2.1,0,0,1-1.9,1.057C99.962,15.743,98.988,14.531,98.988,12.612Zm1.235,0c0,1.285.606,2.057,1.618,2.057s1.63-.784,1.63-2.052-.629-2.058-1.63-2.058-1.618.778-1.618,2.052Z"/><path class="b" d="M109.588,12.613a2.869,2.869,0,1,1,5.712,0,2.87,2.87,0,1,1-5.712,0Zm4.483,0c0-1.313-.59-2.081-1.625-2.081s-1.624.768-1.624,2.081.585,2.085,1.624,2.085S114.071,13.931,114.071,12.613Z"/><path class="b" d="M116.9,9.587h1.151v.962h.089A1.813,1.813,0,0,1,119.95,9.47a1.971,1.971,0,0,1,2.1,2.253v3.921h-1.195V12.023c0-.973-.423-1.457-1.307-1.457A1.387,1.387,0,0,0,118.1,12.1v3.543h-1.2Z"/><path class="b" d="M128.8,8.079V9.615h1.312v1.007H128.8v3.114c0,.634.261.912.856.912a4,4,0,0,0,.456-.028v1a3.919,3.919,0,0,1-.65.061c-1.33,0-1.859-.468-1.859-1.635v-3.42h-.961V9.615h.961V8.079Z"/><path class="b" d="M131.746,7.222h1.185V10.56h.094a1.864,1.864,0,0,1,1.847-1.085,2,2,0,0,1,2.086,2.258v3.91h-1.2V12.028c0-.967-.45-1.457-1.295-1.457a1.416,1.416,0,0,0-1.525,1.535v3.537h-1.195Z"/><path class="b" d="M143.928,14.008A2.458,2.458,0,0,1,141.3,15.76a2.751,2.751,0,0,1-2.8-3.126A2.794,2.794,0,0,1,141.3,9.47c1.685,0,2.7,1.151,2.7,3.053v.417h-4.277v.067a1.6,1.6,0,0,0,1.613,1.735,1.452,1.452,0,0,0,1.441-.734Zm-4.2-1.952h3.059a1.461,1.461,0,0,0-1.491-1.569,1.549,1.549,0,0,0-1.568,1.569Z"/></g></svg>