<svg xmlns="http://www.w3.org/2000/svg" width="30" height="28" viewBox="0 0 30 28"><defs><style>.a{fill:#4d8dee;}</style></defs><path class="a" d="M15,0,30,6V8H28a.93.93,0,0,1-.32.7,1.072,1.072,0,0,1-.757.3H3.078a1.077,1.077,0,0,1-.757-.3A.931.931,0,0,1,2,8H0V6ZM4,10H8V22h2V10h4V22h2V10h4V22h2V10h4V22h.922a1.077,1.077,0,0,1,.758.3A.928.928,0,0,1,28,23v1H2V23a.93.93,0,0,1,.32-.7,1.072,1.072,0,0,1,.757-.3H4V10ZM28.922,25a1.077,1.077,0,0,1,.757.3A.928.928,0,0,1,30,26v2H0V26a.93.93,0,0,1,.32-.7,1.072,1.072,0,0,1,.757-.3H28.922Z"/></svg>