<svg xmlns="http://www.w3.org/2000/svg" width="160" height="48" viewBox="0 0 160 48"><defs><style>.a,.f{fill:#fff;}.a,.c,.d,.e,.f{fill-rule:evenodd;}.b,.c{fill:#002864;}.d{opacity:0.2;}.e{opacity:0.12;}.f{opacity:0.25;}</style></defs><path class="a" d="M154.072,48H5.928A5.981,5.981,0,0,1,0,42V6A5.973,5.973,0,0,1,5.928,0H154.072A5.975,5.975,0,0,1,160,6V42A5.983,5.983,0,0,1,154.072,48Z"/><path class="b" d="M84.29,15.618a3.592,3.592,0,0,1-2.681-1.11A3.778,3.778,0,0,1,80.526,11.8,3.7,3.7,0,0,1,81.609,9.1a3.581,3.581,0,0,1,2.678-1.11A3.629,3.629,0,0,1,86.969,9.1a3.919,3.919,0,0,1,0,5.41A3.562,3.562,0,0,1,84.29,15.618Zm-31.792,0a3.725,3.725,0,0,1-2.693-1.095A3.677,3.677,0,0,1,48.7,11.8a3.764,3.764,0,0,1,3.8-3.815A3.753,3.753,0,0,1,54,8.3a3.043,3.043,0,0,1,1.145.818l.071.085-.8.783-.082-.1a2.267,2.267,0,0,0-1.851-.8,2.559,2.559,0,0,0-1.846.754,2.632,2.632,0,0,0-.777,1.96,2.632,2.632,0,0,0,.777,1.96,2.7,2.7,0,0,0,3.741,0,2.039,2.039,0,0,0,.542-1.227H52.366v-1.1h3.656l.015.1a4.036,4.036,0,0,1,.053.553,3.314,3.314,0,0,1-.912,2.443A3.561,3.561,0,0,1,52.5,15.618Zm42.271-.156H93.642L90.189,9.937l.029.995v4.527H89.091V8.144h1.286l.035.056,3.247,5.2-.029-.992V8.144h1.139v7.317Zm-18.95,0H74.677V9.245H72.7v-1.1h5.1v1.1H75.816v6.217Zm-4.053,0H70.627V8.144h1.139Zm-6.4,0H64.225V9.245H62.244v-1.1h5.1v1.1H65.364Zm-3.841-.012H57.155V8.144h4.368v1.1H58.3v2.007h2.911v1.089H58.3v2.008h3.226Zm20.922-1.7a2.52,2.52,0,0,0,1.845.765,2.457,2.457,0,0,0,1.846-.765A2.649,2.649,0,0,0,86.89,11.8a2.654,2.654,0,0,0-.751-1.949,2.525,2.525,0,0,0-1.845-.765,2.446,2.446,0,0,0-1.843.765A2.649,2.649,0,0,0,81.7,11.8,2.652,2.652,0,0,0,82.445,13.752Z"/><path class="c" d="M80.417,25.679A5.022,5.022,0,1,0,85.453,30.7,4.943,4.943,0,0,0,80.417,25.679Zm0,8.053a3.051,3.051,0,1,1,2.832-3.043A2.906,2.906,0,0,1,80.417,33.732ZM69.429,25.679A5.022,5.022,0,1,0,74.465,30.7,4.943,4.943,0,0,0,69.429,25.679Zm0,8.053a3.051,3.051,0,1,1,2.832-3.043A2.906,2.906,0,0,1,69.429,33.732Zm-13.075-6.52v2.125h5.1A4.479,4.479,0,0,1,60.3,32.013a5.205,5.205,0,0,1-3.935,1.56,5.667,5.667,0,0,1,0-11.332,5.445,5.445,0,0,1,3.841,1.522l1.507-1.507A7.411,7.411,0,0,0,56.378,20.1a7.792,7.792,0,1,0,0,15.583A7.132,7.132,0,0,0,61.82,33.5a7.052,7.052,0,0,0,1.848-4.983,6.577,6.577,0,0,0-.118-1.325h-7.2S56.354,27.212,56.354,27.212Zm53.48,1.654a4.666,4.666,0,0,0-4.3-3.2,4.77,4.77,0,0,0-4.733,5.021,4.908,4.908,0,0,0,4.983,5.021,4.985,4.985,0,0,0,4.183-2.228l-1.705-1.142a2.855,2.855,0,0,1-2.466,1.389,2.563,2.563,0,0,1-2.44-1.522l6.714-2.781S109.834,28.866,109.834,28.866Zm-6.846,1.678a2.756,2.756,0,0,1,2.622-2.926,1.935,1.935,0,0,1,1.863,1.063ZM97.533,35.41h2.2V20.657h-2.2Zm-3.62-8.615h-.08a3.478,3.478,0,0,0-2.649-1.127,5.021,5.021,0,0,0,0,10.034,3.468,3.468,0,0,0,2.649-1.142h.08v.721c0,1.916-1.024,2.949-2.676,2.949a2.784,2.784,0,0,1-2.531-1.784l-1.916.8a4.793,4.793,0,0,0,4.445,2.964c2.584,0,4.774-1.522,4.774-5.233v-9.01H93.925v.827Zm-2.531,6.938A2.879,2.879,0,0,1,88.588,30.7a2.894,2.894,0,0,1,2.793-3.055A2.823,2.823,0,0,1,94.057,30.7,2.788,2.788,0,0,1,91.382,33.732Zm28.775-13.075h-5.272V35.41h2.2V29.823h3.07a4.59,4.59,0,1,0,0-9.166Zm.065,7.105h-3.135V22.7h3.135a2.532,2.532,0,1,1,0,5.063Zm13.613-2.11a4.152,4.152,0,0,0-3.935,2.255l1.954.812a2.1,2.1,0,0,1,2.008-1.089,2.129,2.129,0,0,1,2.322,1.9v.156a4.938,4.938,0,0,0-2.3-.565c-2.11,0-4.25,1.154-4.25,3.317a3.409,3.409,0,0,0,3.658,3.252A3.105,3.105,0,0,0,136.1,34.25h.079v1.142h2.125V29.741C138.306,27.109,136.352,25.652,133.835,25.652Zm-.277,8.08c-.721,0-1.73-.353-1.73-1.26,0-1.142,1.259-1.575,2.334-1.575a3.826,3.826,0,0,1,2.007.5A2.653,2.653,0,0,1,133.558,33.732Zm12.5-7.765-2.531,6.4h-.08l-2.622-6.4h-2.373l3.936,8.945-2.243,4.971h2.3L148.5,25.967ZM126.214,35.41h2.205V20.657h-2.205Z"/><path class="c" d="M12.316,8.892a2.391,2.391,0,0,0-.539,1.666v26.1a2.276,2.276,0,0,0,.55,1.651l.091.079L27.042,23.766v-.327L12.407,8.813Z"/><path class="c" d="M31.909,28.654l-4.877-4.877v-.341l4.877-4.877.106.065L37.784,21.9c1.651.93,1.651,2.467,0,3.408L32.014,28.59Z"/><path class="c" d="M32.014,28.59l-4.983-4.983L12.316,38.321a1.931,1.931,0,0,0,2.452.079Z"/><path class="c" d="M32.014,18.623l-17.246-9.8a1.912,1.912,0,0,0-2.452.079l14.714,14.7Z"/><path class="d" d="M31.908,28.484,14.78,38.215a1.944,1.944,0,0,1-2.361.012l-.091.091.091.08a1.948,1.948,0,0,0,2.361-.012l17.246-9.8Z"/><path class="e" d="M37.78,25.14l-5.89,3.344L32,28.59l5.769-3.279A2.067,2.067,0,0,0,39,23.606,2.124,2.124,0,0,1,37.78,25.14Z"/><path class="f" d="M14.768,9,37.783,22.073a2.169,2.169,0,0,1,1.233,1.534,2.067,2.067,0,0,0-1.233-1.7L14.768,8.828c-1.651-.945-2.991-.156-2.991,1.731v.171C11.777,8.839,13.117,8.065,14.768,9Z"/></svg>