<svg xmlns="http://www.w3.org/2000/svg" width="30" height="30.968" viewBox="0 0 30 30.968"><defs><style>.a{fill:#4d8dee;}</style></defs><g transform="translate(-720 -2334)"><path class="a" d="M13.59,12a3.6,3.6,0,0,1,3.6-3.6H22.9A7.45,7.45,0,0,1,23.13,3H11A2,2,0,0,0,9,5v8.4h4.59Z" transform="translate(715.704 2333)"/><path class="a" d="M29.071,13.5A7.167,7.167,0,0,1,22.957,10H16.719a1.965,1.965,0,0,0-1.929,2v1.4h4.638A3.537,3.537,0,0,1,22.9,17v8H21.357V17a1.965,1.965,0,0,0-1.929-2H5.929A1.965,1.965,0,0,0,4,17V31a1.965,1.965,0,0,0,1.929,2h13.5a1.965,1.965,0,0,0,1.929-2V29.6H16.719A3.537,3.537,0,0,1,13.248,26V20H14.79v6a1.965,1.965,0,0,0,1.929,2H29.071A1.965,1.965,0,0,0,31,26V13.22A6.982,6.982,0,0,1,29.071,13.5Z" transform="translate(716 2331.968)"/><path class="a" d="M35,6a5,5,0,1,1-5-5A5,5,0,0,1,35,6Z" transform="translate(715 2333)"/></g></svg>