<svg xmlns="http://www.w3.org/2000/svg" width="73" height="64.636" viewBox="0 0 73 64.636"><defs><style>.a,.b,.c{fill:#487ac2;}.a,.b{stroke:#f0f0f0;}.a{stroke-width:3px;}.b{stroke-width:4px;}.b,.c{fill-rule:evenodd;}</style></defs><g transform="translate(-152.5 -5868.322)"><path class="a" d="M62.951,1.75a6.925,6.925,0,0,1,5,1.982A6.459,6.459,0,0,1,70,8.564v40.57a6.468,6.468,0,0,1-2.05,4.834,6.923,6.923,0,0,1-5,1.982H7.049a6.925,6.925,0,0,1-5-1.982A6.459,6.459,0,0,1,0,49.136V8.564A6.468,6.468,0,0,1,2.05,3.73a6.916,6.916,0,0,1,5-1.98Zm0,47.386V28.85H7.049V49.136Zm0-33.756V8.564H7.049v6.814h55.9Z" transform="translate(154 5868.072)"/><g transform="translate(182.578 5897.208)"><path class="b" d="M18,1.125a30.192,30.192,0,0,0-6.329,1.181q-3.14.843-6.237,1.834A3.272,3.272,0,0,0,3.177,6.8C1.888,16.247,4.878,23.245,8.5,27.875a25.182,25.182,0,0,0,5.438,5.175,15.665,15.665,0,0,0,2.266,1.319A4.674,4.674,0,0,0,18,34.875a4.66,4.66,0,0,0,1.791-.506,15.665,15.665,0,0,0,2.266-1.319A25.18,25.18,0,0,0,27.5,27.875c3.625-4.63,6.615-11.628,5.326-21.071A3.272,3.272,0,0,0,30.567,4.14q-3.1-.991-6.237-1.834A30.188,30.188,0,0,0,18,1.125Z" transform="translate(-2.872 -1.125)"/><path class="c" d="M18,1.125a30.192,30.192,0,0,0-6.329,1.181q-3.14.843-6.237,1.834A3.272,3.272,0,0,0,3.177,6.8C1.888,16.247,4.878,23.245,8.5,27.875a25.182,25.182,0,0,0,5.438,5.175,15.665,15.665,0,0,0,2.266,1.319A4.674,4.674,0,0,0,18,34.875a4.66,4.66,0,0,0,1.791-.506,15.665,15.665,0,0,0,2.266-1.319A25.18,25.18,0,0,0,27.5,27.875c3.625-4.63,6.615-11.628,5.326-21.071A3.272,3.272,0,0,0,30.567,4.14q-3.1-.991-6.237-1.834A30.188,30.188,0,0,0,18,1.125Zm6.421,14.3a1.126,1.126,0,1,0-1.593-1.593l-5.953,5.956L14.3,17.2A1.126,1.126,0,0,0,12.7,18.8l3.375,3.375a1.125,1.125,0,0,0,1.593,0Z" transform="translate(-2.872 -1.125)"/></g></g></svg>