<svg xmlns="http://www.w3.org/2000/svg" width="75.027" height="58.45" viewBox="0 0 75.027 58.45"><defs><style>.a{fill:#fff;fill-rule:evenodd;}</style></defs><path class="a" d="M67.929,26.512,84.135,10.306s2.337-2.22,5.172.345l8.621,8.621H86.894s-4.571.118-6.552,2.414L69.653,32.374,67.929,30.65A2.934,2.934,0,0,1,67.929,26.512Zm3.793,7.931,5.172-5.517s.586,9.371,10.345,8.965c0,0,8.657-.692,8.621-8.965,0,0,.024-5.1-2.414-6.552h7.586l3.793,4.138s2.322,2.244-.345,4.827L88.963,47.2s-3.228,1.588-5.172-.345ZM86.549,22.03A6.552,6.552,0,1,1,80,28.581,6.552,6.552,0,0,1,86.549,22.03ZM49.471,67.864l3.26-.358.631-4.291a5.8,5.8,0,0,0,2,.315,5.021,5.021,0,0,0,3.408-1.146,6.573,6.573,0,0,0,1.924-2.871,10.628,10.628,0,0,0,.6-3.513,5.131,5.131,0,0,0-.883-3.229,3.069,3.069,0,0,0-2.566-1.126,4.481,4.481,0,0,0-3.281,1.6V52H51.68Zm5.658-6.752a3.813,3.813,0,0,1-1.409-.273l.759-5.469A2.785,2.785,0,0,1,56.6,54.087a1.2,1.2,0,0,1,.989.442,2.493,2.493,0,0,1,.358,1.535,9.478,9.478,0,0,1-.294,2.324,4.976,4.976,0,0,1-.925,1.945,1.972,1.972,0,0,1-1.6.778h0ZM68.78,51.647a5.714,5.714,0,0,0-3.65,1.136,6.521,6.521,0,0,0-2.093,2.84,9.634,9.634,0,0,0-.652,3.471,5.119,5.119,0,0,0,.936,3.25A3.212,3.212,0,0,0,66,63.531a3.964,3.964,0,0,0,3.323-1.914,2.178,2.178,0,0,0,.925,1.315,3.561,3.561,0,0,0,1.662.536l.947-2.145A.894.894,0,0,1,72.4,61a1,1,0,0,1-.126-.537q0-.1.042-.483l1.031-7.152a9.345,9.345,0,0,0-4.564-1.178h0ZM68.7,54a3.79,3.79,0,0,1,1.241.21l-.778,5.322q-1.01,1.557-2.124,1.557a1.083,1.083,0,0,1-.936-.452,2.783,2.783,0,0,1-.326-1.567,9.5,9.5,0,0,1,.294-2.356,4.737,4.737,0,0,1,.957-1.935A2.1,2.1,0,0,1,68.7,54ZM85.46,52H82.052l-3.386,9.024L77.929,52H74.521l1.788,11.169h1.157a4.48,4.48,0,0,1-1.483,1.621,6.426,6.426,0,0,1-2.451.715l.084,2.335a7.418,7.418,0,0,0,6.92-4.627Zm4.333,11.527A5.684,5.684,0,0,0,93.4,62.437,6.12,6.12,0,0,0,95.409,59.7a9.586,9.586,0,0,0,.61-3.365,4.678,4.678,0,0,0-1.241-3.429,4.588,4.588,0,0,0-3.429-1.262,5.76,5.76,0,0,0-3.607,1.072,5.993,5.993,0,0,0-2.009,2.7,9.493,9.493,0,0,0-.61,3.355,4.788,4.788,0,0,0,1.231,3.492,4.584,4.584,0,0,0,3.439,1.262h0Zm.231-2.44a1.376,1.376,0,0,1-1.178-.5,2.684,2.684,0,0,1-.379-1.6,9.228,9.228,0,0,1,.6-3.345,2.1,2.1,0,0,1,2.051-1.557,1.383,1.383,0,0,1,1.168.5,2.629,2.629,0,0,1,.389,1.6,9.675,9.675,0,0,1-.61,3.355,2.085,2.085,0,0,1-2.04,1.546h0Zm10.054,2.44a4.444,4.444,0,0,0,3.534-2.019l-.063,1.662h2.819L107.924,52h-3.26l-.989,7.131Q102.518,60.9,101.53,60.9a.759.759,0,0,1-.579-.21,1.024,1.024,0,0,1-.2-.715q0-.1.042-.526L101.824,52h-3.26l-1.136,7.972a4.989,4.989,0,0,0-.063.778,2.856,2.856,0,0,0,.694,2.04,2.644,2.644,0,0,0,2.019.736h0Zm13.63-9.213H115.9L116.59,52h-2.566l.4-2.8-2.819.316-.694,2.483h-1.683l-.315,2.314h1.535l-.736,5.153a6.545,6.545,0,0,0-.063.883,2.866,2.866,0,0,0,3.176,3.176,6.284,6.284,0,0,0,1.557-.21,5.66,5.66,0,0,0,1.493-.61l-.862-2.167a4.89,4.89,0,0,1-.683.273,2.021,2.021,0,0,1-.579.084.768.768,0,0,1-.6-.221,1.031,1.031,0,0,1-.2-.7q0-.126.042-.5Zm7.909,0H123.8L124.5,52h-2.566l.4-2.8-2.819.316-.694,2.483h-1.683l-.316,2.314h1.535l-.736,5.153a6.545,6.545,0,0,0-.063.883,2.866,2.866,0,0,0,3.176,3.176,6.284,6.284,0,0,0,1.557-.21,5.664,5.664,0,0,0,1.493-.61l-.862-2.167a4.891,4.891,0,0,1-.684.273,2.021,2.021,0,0,1-.578.084.769.769,0,0,1-.6-.221,1.033,1.033,0,0,1-.2-.7q0-.126.042-.5Z" transform="translate(-49.471 -9.414)"/></svg>