<svg xmlns="http://www.w3.org/2000/svg" width="30" height="28.125" viewBox="0 0 30 28.125"><defs><style>.a{fill:#4d8dee;}</style></defs><g transform="translate(-720 -2236)"><path class="a" d="M30.237,10H3.763A1.742,1.742,0,0,0,2,11.72V28.405a1.742,1.742,0,0,0,1.763,1.72H30.237A1.742,1.742,0,0,0,32,28.405V11.72A1.742,1.742,0,0,0,30.237,10ZM22.794,20.822,13.634,24.81a.958.958,0,0,1-.893-.066.91.91,0,0,1-.429-.767V16a.91.91,0,0,1,.429-.767.958.958,0,0,1,.893-.066l9.159,3.979a.906.906,0,0,1,0,1.674Z" transform="translate(718 2234)"/><path class="a" d="M28.14,3a.961.961,0,0,0-.917-1H7.057A.961.961,0,0,0,6.14,3V4h22Z" transform="translate(718 2234)"/><path class="a" d="M30.12,7a.966.966,0,0,0-.929-1H5.049A.966.966,0,0,0,4.12,7V8h26Z" transform="translate(718 2234)"/></g></svg>